# xmcd
#
# Track frame offsets: 
#        150
#        29307
#        61194
#        86590
#        115347
#        152355
#        180278
#        188013
#        217159
#        235571
#        264929
#        292296
#
# Disc length: 4325 seconds
#
# Revision: 0
# Processed by: cddbd v1.5.2PL0 Copyright (c) Steve Scherf et al.
# Submitted via: ExactAudioCopy v0.99pb4
#
DISCID=9b10e30c
DTITLE=Walter Trout - No More Fish Jokes (Live)
DYEAR=2000
DGENRE=Blues
TTITLE0=Dust My Broom 
TTITLE1=If You Just Try 
TTITLE2=False Alarm
TTITLE3=Life In The Jungle
TTITLE4=Girl From The North Country
TTITLE5=Victor The Cajun
TTITLE6=Earrings On The Table 
TTITLE7=Motivation Of Love
TTITLE8=Playing With Gloves On
TTITLE9=The Love That We Once Knew
TTITLE10=Prisoner Of A Dream
TTITLE11=Going Down
EXTD=
EXTT0=
EXTT1=
EXTT2=
EXTT3=
EXTT4=
EXTT5=
EXTT6=
EXTT7=
EXTT8=
EXTT9=
EXTT10=
EXTT11=
PLAYORDER=
